<svg width="41" height="34" viewBox="0 0 41 34" fill="none" xmlns="http://www.w3.org/2000/svg">
<path d="M1.30064 0.891878C0.116583 2.07594 0.116583 3.98865 1.30064 5.17271L13.0805 16.9526L1.30064 28.7325C0.116583 29.9165 0.116583 31.8293 1.30064 33.0133C2.4847 34.1974 4.39742 34.1974 5.58148 33.0133L19.517 19.0778C20.701 17.8938 20.701 15.9811 19.517 14.797L5.61184 0.891878C4.42778 -0.292183 2.4847 -0.292183 1.30064 0.891878Z" fill="#B11226"/>
<path d="M21.3082 0.891878C20.1242 2.07594 20.1242 3.98865 21.3082 5.17271L33.0881 16.9526L21.3082 28.7325C20.1242 29.9165 20.1242 31.8293 21.3082 33.0133C22.4923 34.1974 24.405 34.1974 25.5891 33.0133L39.5246 19.0778C40.7086 17.8938 40.7086 15.9811 39.5246 14.797L25.5891 0.861517C24.4354 -0.292183 22.4923 -0.292183 21.3082 0.891878Z" fill="#B11226"/>
</svg>
