<svg width="242" height="228" viewBox="0 0 242 228" fill="none" xmlns="http://www.w3.org/2000/svg">
<path d="M236.623 158.475H5.38092C2.41162 158.475 0.00292969 160.87 0.00292969 163.824V205.896C0.00292969 218.083 9.97468 228 22.2303 228H155.239C167.495 228 177.467 218.083 177.467 205.896V189.072L183.217 187.166C184.001 189.154 185.944 190.566 188.222 190.566H236.622C239.592 190.566 242 188.171 242 185.218V163.825C242 160.871 239.592 158.476 236.622 158.476L236.623 158.475ZM166.711 205.895C166.711 212.187 161.563 217.304 155.239 217.304H22.2298C15.9034 217.304 10.7579 212.185 10.7579 205.895V190.564H139.824C142.793 190.564 145.202 188.168 145.202 185.215C145.202 182.262 142.793 179.867 139.824 179.867H10.7579V169.171H166.714V185.215L166.711 205.895ZM177.466 169.171H182.844V176.013L177.466 177.797V169.171ZM231.246 179.868H193.602V169.171H231.246V179.868Z" fill="white" fill-opacity="0.3"/>
<path d="M161.331 185.212C161.331 188.166 158.924 190.56 155.953 190.56C152.983 190.56 150.575 188.167 150.575 185.212C150.575 182.259 152.983 179.863 155.953 179.863C158.924 179.863 161.331 182.258 161.331 185.212Z" fill="white" fill-opacity="0.3"/>
<path d="M139.82 46.1652C139.82 49.12 137.414 51.5135 134.442 51.5135C131.473 51.5135 129.064 49.1202 129.064 46.1652C129.064 43.2123 131.473 40.8169 134.442 40.8169C137.414 40.8169 139.82 43.212 139.82 46.1652Z" fill="white" fill-opacity="0.3"/>
<path d="M231.243 88.9496C231.243 91.9044 228.837 94.2979 225.865 94.2979C222.896 94.2979 220.487 91.9047 220.487 88.9496C220.487 85.9967 222.896 83.6013 225.865 83.6013C228.837 83.6013 231.243 85.9965 231.243 88.9496Z" fill="white" fill-opacity="0.3"/>
<path d="M166.71 142.428C166.71 145.382 164.304 147.776 161.332 147.776C158.363 147.776 155.954 145.383 155.954 142.428C155.954 139.475 158.363 137.079 161.332 137.079C164.303 137.079 166.71 139.474 166.71 142.428Z" fill="white" fill-opacity="0.3"/>
<path d="M48.3976 94.299C48.3976 97.2538 45.9911 99.6473 43.0196 99.6473C40.0503 99.6473 37.6416 97.254 37.6416 94.299C37.6416 91.3461 40.05 88.9507 43.0196 88.9507C45.9908 88.9507 48.3976 91.3458 48.3976 94.299Z" fill="white" fill-opacity="0.3"/>
<path d="M123.689 126.384C123.689 129.339 121.282 131.733 118.311 131.733C115.341 131.733 112.933 129.339 112.933 126.384C112.933 123.432 115.341 121.036 118.311 121.036C121.282 121.036 123.689 123.431 123.689 126.384Z" fill="white" fill-opacity="0.3"/>
<path d="M75.2877 14.0768C75.2877 17.0316 72.8812 19.4251 69.9097 19.4251C66.9404 19.4251 64.5317 17.0319 64.5317 14.0768C64.5317 11.1239 66.9402 8.72852 69.9097 8.72852C72.8809 8.72852 75.2877 11.1237 75.2877 14.0768Z" fill="white" fill-opacity="0.3"/>
<path d="M96.9265 103.609C97.977 106.371 101.081 107.765 103.858 106.719C116.044 102.135 128.308 100.916 133.219 90.0899C136.513 82.8278 133.248 74.2518 125.94 70.9743C122.763 69.5494 119.565 69.1713 116.296 70.1167C115.069 67.4962 112.945 65.1449 109.257 63.4908C101.895 60.1884 93.3102 63.5118 90.0395 70.7201C86.2098 79.1606 89.7745 87.1576 93.5485 95.623C94.6836 98.1653 95.8571 100.795 96.9269 103.609L96.9265 103.609ZM99.8439 75.1171C100.687 73.2587 102.907 72.3743 104.833 73.2396C106.195 73.8508 107.017 74.2194 107.19 78.5419C107.367 82.935 112.526 85.2554 115.96 82.4766C117.798 80.9886 119.058 80.2953 119.924 80.2953C120.344 80.2953 120.88 80.4405 121.516 80.7251C123.417 81.5789 124.268 83.806 123.414 85.693C121.251 90.4604 114.381 91.9141 105.008 94.9833C104.451 93.6883 103.9 92.4525 103.379 91.2874C99.9396 83.5652 98.0786 79.008 99.8436 75.1174L99.8439 75.1171Z" fill="white" fill-opacity="0.3"/>
<path d="M97.4921 32.0146C98.5427 34.7745 101.646 36.1708 104.424 35.1241C113.159 31.8369 122.679 30.8113 126.542 22.2947C129.273 16.2745 126.58 9.20509 120.524 6.48743C118.352 5.51331 116.078 5.10268 113.692 5.52285C112.63 3.77901 110.984 2.20709 108.424 1.05915C102.338 -1.67216 95.2373 1.07633 92.5331 7.03771C89.485 13.759 92.3256 20.1326 95.0741 26.2985C95.8884 28.1245 96.7296 30.0135 97.4921 32.015V32.0146ZM102.336 11.436C102.618 10.8153 103.36 10.5211 104.001 10.8096C104.372 10.9757 104.491 11.0884 104.493 11.0884C104.506 11.1094 104.767 11.5354 104.84 13.3728C105.017 17.7659 110.178 20.0863 113.61 17.3075C115.054 16.1385 115.544 16.0583 115.552 16.0564C115.554 16.0564 115.717 16.066 116.099 16.2379C116.745 16.5282 117.019 17.2731 116.737 17.8976C115.565 20.48 111.438 21.5611 105.557 23.4308C105.334 22.9265 105.117 22.4376 104.906 21.9639C102.582 16.7476 101.316 13.6857 102.336 11.436L102.336 11.436Z" fill="white" fill-opacity="0.3"/>
<path d="M75.4596 78.2362C78.4116 78.4673 81.0082 76.2746 81.2427 73.3236C82.1454 61.8862 85.8234 51.6087 78.7824 43.4146C73.9424 37.7803 65.4628 37.1804 59.8567 41.9439C57.2158 44.1882 55.9405 46.6578 55.4489 49.1141C52.6044 49.2268 50.0424 50.283 47.6302 52.3344C42.0049 57.1151 41.3382 65.5535 46.1456 71.1482C53.179 79.3325 63.9207 77.3346 75.46 78.2363L75.4596 78.2362ZM54.6148 60.4633C55.3985 59.7967 55.7384 59.7967 55.9631 59.7967C56.6104 59.7967 57.6513 60.0966 59.0573 60.6868C63.129 62.4001 67.4389 58.7443 66.371 54.4716C65.547 51.1711 65.9792 50.8043 66.8415 50.0709C67.9555 49.1235 69.638 49.2343 70.604 50.3574C72.8704 52.997 72.4305 57.1799 71.4568 64.3481C71.33 65.286 71.1956 66.2715 71.065 67.2953C62.9734 67.0412 57.0442 67.3659 54.3189 64.1934C53.3662 63.0875 53.4987 61.4124 54.6146 60.4631L54.6148 60.4633Z" fill="white" fill-opacity="0.3"/>
<path d="M206.393 52.033L215.804 61.3922C217.903 63.4799 221.308 63.4799 223.41 61.3922C225.509 59.3046 225.509 55.9183 223.41 53.8284L217.802 48.2513L223.41 42.6742C225.509 40.5866 225.509 37.2002 223.41 35.1104L217.802 29.5333L223.41 23.9562C225.509 21.8685 225.509 18.4822 223.41 16.3924C221.309 14.3048 217.905 14.3048 215.804 16.3924L206.393 25.7516C204.294 27.8393 204.294 31.2256 206.393 33.3154L212.001 38.8926L206.393 44.4697C204.294 46.5573 204.294 49.9436 206.393 52.0335V52.033Z" fill="white" fill-opacity="0.3"/>
<path d="M4.3234 124.502L12.3958 126.109L8.74469 129.738C5.79269 132.673 7.19285 137.702 11.2434 138.707L25.5847 142.271C28.4541 142.988 31.3851 141.253 32.1073 138.381C32.8275 135.516 31.0759 132.612 28.195 131.896L23.0688 130.622L27.1078 126.605C30.1386 123.591 28.5694 118.417 24.3594 117.578L6.43428 114.012C3.52069 113.434 0.687533 115.311 0.105876 118.209C-0.477993 121.104 1.41188 123.924 4.32355 124.502L4.3234 124.502Z" fill="white" fill-opacity="0.3"/>
<path d="M58.1324 108.474C56.2982 112.517 56.35 115.986 57.3449 119.017C54.4006 120.281 51.7521 122.539 49.9181 126.582C46.4264 134.278 49.8643 143.324 57.6065 146.794C69.3109 152.045 80.3064 144.206 93.326 139.309C96.1032 138.264 97.5034 135.177 96.4528 132.413C91.534 119.483 90.1303 106.053 78.4603 100.818C70.7144 97.3437 61.6144 100.799 58.1323 108.473L58.1324 108.474ZM84.6428 131.264C74.2885 135.647 67.5667 139.528 62.0294 137.045C59.7093 136.004 58.676 133.29 59.7228 130.981C60.445 129.388 60.9232 128.336 65.9686 128.135C70.386 127.961 72.7193 122.829 69.9251 119.414C66.7349 115.518 67.2132 114.465 67.9353 112.872C68.9667 110.599 71.6767 109.509 74.037 110.567C78.4948 112.567 80.3138 117.712 83.1444 126.632C83.6092 128.093 84.1028 129.65 84.6425 131.264L84.6428 131.264Z" fill="white" fill-opacity="0.3"/>
<path d="M193.6 137.083C202.497 137.083 209.733 129.886 209.733 121.039C209.733 112.193 202.496 104.996 193.6 104.996C184.704 104.996 177.467 112.193 177.467 121.039C177.467 129.886 184.706 137.083 193.6 137.083ZM193.6 115.691C196.566 115.691 198.978 118.09 198.978 121.039C198.978 123.989 196.566 126.388 193.6 126.388C190.635 126.388 188.222 123.989 188.222 121.039C188.222 118.09 190.635 115.691 193.6 115.691Z" fill="white" fill-opacity="0.3"/>
<path d="M16.1335 40.8159C25.0299 40.8159 32.2665 33.6189 32.2665 24.772C32.2665 15.9252 25.0294 8.72815 16.1335 8.72815C7.23752 8.72815 0.000488281 15.9252 0.000488281 24.772C0.000488281 33.6189 7.23949 40.8159 16.1335 40.8159ZM16.1335 19.4237C19.0989 19.4237 21.5115 21.8227 21.5115 24.772C21.5115 27.7214 19.0992 30.1203 16.1335 30.1203C13.1678 30.1203 10.7555 27.7214 10.7555 24.772C10.7555 21.8227 13.1678 19.4237 16.1335 19.4237Z" fill="white" fill-opacity="0.3"/>
</svg>
