<svg width="40" height="34" viewBox="0 0 40 34" fill="none" xmlns="http://www.w3.org/2000/svg">
<path d="M39.112 0.891878C40.296 2.07594 40.296 3.98865 39.112 5.17271L27.3321 16.9526L39.112 28.7325C40.296 29.9165 40.296 31.8293 39.112 33.0133C37.9279 34.1974 36.0152 34.1974 34.8311 33.0133L20.8956 19.0778C19.7116 17.8938 19.7116 15.9811 20.8956 14.797L34.8008 0.891878C35.9848 -0.292183 37.9279 -0.292183 39.112 0.891878Z" fill="white"/>
<path d="M19.1044 0.891878C20.2884 2.07594 20.2884 3.98865 19.1044 5.17271L7.32448 16.9526L19.1044 28.7325C20.2884 29.9165 20.2884 31.8293 19.1044 33.0133C17.9203 34.1974 16.0076 34.1974 14.8235 33.0133L0.888042 19.0778C-0.296017 17.8938 -0.296017 15.9811 0.888042 14.797L14.8235 0.861517C15.9772 -0.292183 17.9203 -0.292183 19.1044 0.891878Z" fill="white"/>
</svg>
